# xmcd
#
# Track frame offsets: 
#        150
#        13458
#        26880
#        39593
#        48908
#        61335
#        74385
#        86225
#        99028
#        112403
#        123768
#        133800
#        143993
#        158130
#        170273
#        182740
#        199160
#        209960
#        223023
#        234220
#        247323
#
# Disc length: 3472 seconds
#
# Revision: 1
# Processed by: cddbd v1.5.2PL0 Copyright (c) Steve Scherf et al.
# Submitted via: ExactAudioCopy v1.0b6
#
DISCID=450d8e15
DTITLE=Tammy Wynette - Tears Of Fire - The 25th Anniversary Collection
DTITLE=[CD 1)
DYEAR=1992
DGENRE=Country
TTITLE0=You Can Steal Me (1964)
TTITLE1=Apartment #9 (1966)
TTITLE2=She Didn't Color Daddy (1966)
TTITLE3=Your Good Girl's Gonna Go Bad (1967)
TTITLE4=Walk Through This World With Me (1967)
TTITLE5=My Elusive Dreams [with David Houston] (1967)
TTITLE6=I Don't Wanna Play House (1967)
TTITLE7=Take Me To Your World (1967)
TTITLE8=D-I-V-O-R-C-E (1968)
TTITLE9=Sweet Dreams (1968)
TTITLE10=Lonely Street (1968)
TTITLE11=I Believe (1968)
TTITLE12=He (1968)
TTITLE13=Stand By Your Man (1968)
TTITLE14=You'll Never Walk Alone (1968)
TTITLE15=How Great Thou Art (1968)
TTITLE16=Singing My Song (1969)
TTITLE17=Too Far Gone (1969)
TTITLE18=The Ways To Love A Man (1969)
TTITLE19=I'll See Him Through (1969)
TTITLE20=Kid's (Say The Darndest Things) (1969)
EXTD=
EXTT0=
EXTT1=
EXTT2=
EXTT3=
EXTT4=
EXTT5=
EXTT6=
EXTT7=
EXTT8=
EXTT9=
EXTT10=
EXTT11=
EXTT12=
EXTT13=
EXTT14=
EXTT15=
EXTT16=
EXTT17=
EXTT18=
EXTT19=
EXTT20=
PLAYORDER=
